<svg xmlns="http://www.w3.org/2000/svg" xmlns:xlink="http://www.w3.org/1999/xlink" id="Layer_1" x="0" y="0" enable-background="new 0 0 150 40" version="1.1" viewBox="0 0 150 40" xml:space="preserve"><g><rect width="175.7" height="64" x="-12.9" y="-12.5" fill="none"/><g><g><defs><path id="SVGID_1_" d="M33.2,29.4C33.2,29.4,33.2,29.4,33.2,29.4C33.2,29.4,33.2,29.4,33.2,29.4C33.2,29.4,33.2,29.4,33.2,29.4 M20.4,15.8C20.4,15.8,20.4,15.8,20.4,15.8C20.4,15.8,20.4,15.8,20.4,15.8 M20.4,15.8C20.4,15.8,20.4,15.8,20.4,15.8 C20.4,15.8,20.4,15.8,20.4,15.8 M20.3,15.8C20.3,15.7,20.3,15.7,20.3,15.8C20.3,15.7,20.3,15.7,20.3,15.8 M20.3,15.7 C20.3,15.7,20.3,15.7,20.3,15.7C20.3,15.7,20.3,15.7,20.3,15.7 M20.3,15.7C20.3,15.7,20.3,15.7,20.3,15.7 C20.3,15.7,20.3,15.7,20.3,15.7 M20.3,15.7C20.3,15.7,20.3,15.7,20.3,15.7C20.3,15.7,20.3,15.7,20.3,15.7 M20.3,15.7 C20.3,15.7,20.3,15.7,20.3,15.7C20.3,15.7,20.3,15.7,20.3,15.7 M20.3,15.7C20.3,15.7,20.3,15.7,20.3,15.7 C20.3,15.7,20.3,15.7,20.3,15.7 M20.3,15.7C20.3,15.7,20.3,15.7,20.3,15.7C20.3,15.7,20.3,15.7,20.3,15.7 M20.3,15.7 C20.3,15.7,20.3,15.7,20.3,15.7C20.3,15.7,20.3,15.7,20.3,15.7 M20.3,15.7C20.3,15.7,20.3,15.7,20.3,15.7 C20.3,15.7,20.3,15.7,20.3,15.7 M20.3,15.6C20.3,15.6,20.3,15.6,20.3,15.6C20.3,15.6,20.3,15.6,20.3,15.6 M20.3,15.6 C20.3,15.6,20.3,15.6,20.3,15.6C20.3,15.6,20.3,15.6,20.3,15.6 M20.3,15.6C20.3,15.6,20.3,15.6,20.3,15.6 C20.3,15.6,20.3,15.6,20.3,15.6 M20.3,15.6c-1.3-2.7-1.6-5.8-1.9-8.4C18.6,9.8,19,12.9,20.3,15.6 M19.8,6.6 c-0.6,5.9,0.4,10.1,3.2,12.6c0.5,0.4,1,0.8,1.6,1.1c0,0,0,0,0,0c0,0,0,0,0,0c1.8,1.1,3.4,2,4.6,2.9c4.1,2.8,5,4.4,4.8,5.3 c-0.1,0.4-0.3,0.7-0.8,0.9c1.6-0.8,2.6-4.9,3-7.6c0.5-3.3-0.2-5.8-8.4-10.6C25.3,9.9,22.4,8.2,19.8,6.6L19.8,6.6 c-0.1,0-0.1-0.1-0.2-0.1C19.7,6.5,19.7,6.5,19.8,6.6 M18.2,5.5c0.1,0.1,0.2,0.1,0.2,0.2C18.3,5.6,18.3,5.6,18.2,5.5z"/></defs><clipPath id="SVGID_2_"><use overflow="visible" xlink:href="#SVGID_1_"/></clipPath><linearGradient id="SVGID_3_" x1="-103.742" x2="-103.265" y1="97.011" y2="97.011" gradientTransform="matrix(19.9912 43.0674 43.0674 -19.9912 -2080.6121 6416.2651)" gradientUnits="userSpaceOnUse"><stop offset="0" style="stop-color:#006991"/><stop offset=".005" style="stop-color:#006991"/><stop offset=".077" style="stop-color:#006e97"/><stop offset=".196" style="stop-color:#007baa"/><stop offset=".348" style="stop-color:#0091c8"/><stop offset=".51" style="stop-color:#00aeef"/><stop offset="1" style="stop-color:#e1f4fd"/></linearGradient><polygon fill="url(#SVGID_3_)" points="33.4 -1.5 45.8 25.2 21.5 36.5 9.1 9.8" clip-path="url(#SVGID_2_)"/></g><g><defs><path id="SVGID_4_" d="M29.1,28.8L29.1,28.8c0,0-0.1,0-0.1,0C29,28.7,29,28.7,29.1,28.8 M29,28.7C28.9,28.7,28.9,28.7,29,28.7 C28.9,28.7,28.9,28.7,29,28.7 M14.9,26.1c-0.6,0.2-1.2,0.5-1.8,0.8c0,0,0.1,0,0.1-0.1c0,0-0.1,0-0.1,0.1v0c0,0,0,0,0,0 c0,0,0,0,0,0c-5.6,3.2-8.9,4.5-10.6,4.5c-0.8,0-1.2-0.3-1.5-0.7c-0.1-0.3-0.2-0.6-0.2-0.9c0,0,0,0,0,0c0,0.1,0,0.1,0,0.2v0 c0,1.8,3,4.6,5.1,6.2c1,0.8,2,1.3,3.2,1.5h1.6c2-0.2,4.6-1.3,8.5-3.5c2.4-1.5,5.4-3.1,8.1-4.6c-3.6-2.6-6.9-3.9-9.8-3.9 C16.6,25.7,15.8,25.8,14.9,26.1"/></defs><clipPath id="SVGID_5_"><use overflow="visible" xlink:href="#SVGID_4_"/></clipPath><linearGradient id="SVGID_6_" x1="-105.59" x2="-105.113" y1="94.101" y2="94.101" gradientTransform="matrix(-47.2925 -4.2207 -4.2207 47.2925 -4573.0967 -4863.4751)" gradientUnits="userSpaceOnUse"><stop offset="0" style="stop-color:#006991"/><stop offset=".005" style="stop-color:#006991"/><stop offset=".077" style="stop-color:#006e97"/><stop offset=".196" style="stop-color:#007baa"/><stop offset=".348" style="stop-color:#0091c8"/><stop offset=".51" style="stop-color:#00aeef"/><stop offset="1" style="stop-color:#e1f4fd"/></linearGradient><polygon fill="url(#SVGID_6_)" points="28.8 40.2 -.2 37.6 1.1 23.2 30.1 25.8" clip-path="url(#SVGID_5_)"/></g><g><defs><path id="SVGID_7_" d="M23,19.2C23,19.2,23,19.2,23,19.2C23,19.2,23,19.2,23,19.2 M13.1,13.7c0.1,0.1,0.2,0.1,0.3,0.2 C13.3,13.8,13.2,13.7,13.1,13.7z M16.7,1.6L16.7,1.6L16.7,1.6z M16.7,1.6C16.7,1.6,16.7,1.6,16.7,1.6 C16.7,1.6,16.7,1.6,16.7,1.6 M13.7,14c0,0-0.1,0-0.1-0.1C13.6,14,13.7,14,13.7,14c6.6,3.7,8,4.8,10.8,6.3 C24,20,23.5,19.6,23,19.2c-1.2-1-2-2.2-2.6-3.4c0,0,0,0,0,0c0,0,0,0,0,0c0,0,0,0,0,0l0,0c0,0,0,0,0,0c0,0,0,0,0,0c0,0,0,0,0,0 c0,0,0,0,0,0c0,0,0,0,0,0c0,0,0,0,0,0c0,0,0,0,0,0c0,0,0,0,0,0c0,0,0,0,0,0c0,0,0,0,0,0c0,0,0,0,0,0c0,0,0,0,0,0c0,0,0,0,0,0 c0,0,0,0,0,0c0,0,0,0,0,0c0,0,0,0,0,0c0,0,0,0,0,0h0c-1.3-2.7-1.6-5.8-1.9-8.4c-0.1-0.6-0.1-1.1-0.2-1.7 c-0.2-1.9-0.6-3.3-1.5-3.9h0c-0.1,0-0.3,0-0.4,0C14.4,1.6,13.6,5.7,13.7,14"/></defs><clipPath id="SVGID_8_"><use overflow="visible" xlink:href="#SVGID_7_"/></clipPath><linearGradient id="SVGID_9_" x1="-103.211" x2="-102.734" y1="92.568" y2="92.568" gradientTransform="matrix(-2.5812 -31.3964 -31.3964 2.5812 2659.1636 -3462.8767)" gradientUnits="userSpaceOnUse"><stop offset="0" style="stop-color:#ec008c"/><stop offset="1" style="stop-color:#92278f"/></linearGradient><polygon fill="url(#SVGID_9_)" points="13.2 21.2 11.6 1.7 24.5 .7 26.1 20.2" clip-path="url(#SVGID_8_)"/></g><g><defs><path id="SVGID_10_" d="M16.7,1.6C16.7,1.6,16.7,1.6,16.7,1.6C16.7,1.6,16.7,1.6,16.7,1.6 M8.6,2.8C5.5,4.1,3.7,5.9,3.7,15.4 c0.1,2.8,0,6.3-0.1,9.3c5.4-2.4,8.5-5.4,9.3-9.1c-0.3,1.8-1.2,3.4-2.2,4.8c1.4-1.8,2.4-4,2.4-6.7v0c0-9.3,1.2-12.2,2.8-12.2 c0.2,0,0.5,0.1,0.8,0.2l0,0c-0.4-0.3-1-0.4-1.7-0.4C13.1,1.2,10.4,2,8.6,2.8"/></defs><clipPath id="SVGID_11_"><use overflow="visible" xlink:href="#SVGID_10_"/></clipPath><linearGradient id="SVGID_12_" x1="-102.16" x2="-101.683" y1="93.922" y2="93.922" gradientTransform="matrix(26.9605 -39.0815 -39.0815 -26.9605 6429.5889 -1439.5337)" gradientUnits="userSpaceOnUse"><stop offset="0" style="stop-color:#006991"/><stop offset=".005" style="stop-color:#006991"/><stop offset=".077" style="stop-color:#006e97"/><stop offset=".196" style="stop-color:#007baa"/><stop offset=".348" style="stop-color:#0091c8"/><stop offset=".51" style="stop-color:#00aeef"/><stop offset="1" style="stop-color:#e1f4fd"/></linearGradient><polygon fill="url(#SVGID_12_)" points="-7.4 17.1 7.8 -4.9 27.7 8.8 12.5 30.8" clip-path="url(#SVGID_11_)"/></g><g><defs><path id="SVGID_13_" d="M34,28.5c0.2-0.9-0.7-2.5-4.8-5.3C32.9,25.7,34.2,27.4,34,28.5 M13.2,26.8c0,0-0.1,0-0.1,0.1 c0.6-0.3,1.2-0.6,1.8-0.8c0,0-0.1,0-0.1,0c1.2-0.4,2.4-0.6,3.6-0.6c3.9,0,7.6,2,10.5,3.2c0.1,0,0.1,0.1,0.2,0.1 c1.2,0.5,2.3,0.9,3.1,0.9c0.4,0,0.7-0.1,0.9-0.2c0,0,0,0,0,0c1.8-1.5-1.6-4.5-9.2-8.8c0.2-0.1,0.4-0.2,0.6-0.4c0,0,0,0,0,0 C17.6,24.4,15.9,25.1,13.2,26.8"/></defs><clipPath id="SVGID_14_"><use overflow="visible" xlink:href="#SVGID_13_"/></clipPath><linearGradient id="SVGID_15_" x1="-105.424" x2="-104.947" y1="93.141" y2="93.141" gradientTransform="matrix(-29.505 -12.6459 -12.6459 29.505 -1899.3707 -4052.3538)" gradientUnits="userSpaceOnUse"><stop offset="0" style="stop-color:#f58220"/><stop offset="1" style="stop-color:#fff200"/></linearGradient><polygon fill="url(#SVGID_15_)" points="31.6 37.6 9.7 28.2 16.5 12.4 38.4 21.8" clip-path="url(#SVGID_14_)"/></g><g><defs><path id="SVGID_16_" d="M10.7,20.4c-2.1,2.7-5.1,4.6-7.2,6.2c-1.5,1.1-2.6,2.1-2.6,3.2c0,0,0,0,0,0c0,0.3,0,0.6,0.2,0.9 c-0.1-0.2-0.2-0.5-0.2-0.7c0.2,0.7,0.7,1,1.6,1c1.9,0,5.4-1.7,10.6-4.8c0,0.2,0,0.5,0,0.7c0,0,0,0,0,0v0c-0.1-8.2,0.2-10,0-13.2 C13.1,16.4,12.1,18.6,10.7,20.4"/></defs><clipPath id="SVGID_17_"><use overflow="visible" xlink:href="#SVGID_16_"/></clipPath><linearGradient id="SVGID_18_" x1="-100.523" x2="-100.046" y1="94.643" y2="94.643" gradientTransform="matrix(26.0879 -18.954 -18.954 -26.0879 4415.771 591.5723)" gradientUnits="userSpaceOnUse"><stop offset="0" style="stop-color:#4d743a"/><stop offset="1" style="stop-color:#8cc63f"/></linearGradient><polygon fill="url(#SVGID_18_)" points="-7.4 19.6 9 7.8 21.5 25 5.1 36.9" clip-path="url(#SVGID_17_)"/></g><g><path fill="#939598" d="M13.4,13.8c0.1,0,0.1,0.1,0.2,0.1C13.5,13.9,13.5,13.9,13.4,13.8"/></g><g><defs><path id="SVGID_19_" d="M13.1,13.7c0.1,0.1,0.2,0.1,0.3,0.2c0.1,0,0.1,0.1,0.2,0.1c0,0,0.1,0,0.1,0.1 c-0.1-8.3,0.7-12.4,2.6-12.4c0.1,0,0.2,0,0.4,0c-0.3-0.1-0.5-0.2-0.8-0.2C14.3,1.4,13.1,4.4,13.1,13.7"/></defs><clipPath id="SVGID_20_"><use overflow="visible" xlink:href="#SVGID_19_"/></clipPath><linearGradient id="SVGID_21_" x1="-103.212" x2="-102.734" y1="92.265" y2="92.265" gradientTransform="matrix(-2.5812 -31.3964 -31.3964 2.5812 2646.033 -3461.8188)" gradientUnits="userSpaceOnUse"><stop offset="0" style="stop-color:#8c0052"/><stop offset="1" style="stop-color:#570054"/></linearGradient><polygon fill="url(#SVGID_21_)" points="13.1 14.3 12.1 1.5 16.7 1.2 17.7 13.9" clip-path="url(#SVGID_20_)"/></g><g><defs><path id="SVGID_22_" d="M16.7,1.6c-0.3-0.1-0.5-0.2-0.8-0.2C16.2,1.4,16.5,1.5,16.7,1.6 M13.1,13.7c0-9.3,1.2-12.2,2.8-12.2 C14.3,1.4,13.1,4.4,13.1,13.7"/></defs><clipPath id="SVGID_23_"><use overflow="visible" xlink:href="#SVGID_22_"/></clipPath><linearGradient id="SVGID_24_" x1="-102.16" x2="-101.683" y1="93.8" y2="93.8" gradientTransform="matrix(26.9605 -39.0815 -39.0815 -26.9605 6425.541 -1442.3062)" gradientUnits="userSpaceOnUse"><stop offset="0" style="stop-color:#004563"/><stop offset=".005" style="stop-color:#004563"/><stop offset=".13" style="stop-color:#004b6b"/><stop offset=".346" style="stop-color:#005b7f"/><stop offset=".51" style="stop-color:#006991"/><stop offset="1" style="stop-color:#839097"/></linearGradient><polygon fill="url(#SVGID_24_)" points="7.4 9.7 14.3 -.2 22.4 5.4 15.6 15.4" clip-path="url(#SVGID_23_)"/></g><g><path fill="#939598" d="M18.4,5.7c0.4,0.2,0.8,0.5,1.2,0.8C19.2,6.2,18.8,5.9,18.4,5.7"/></g><g><defs><path id="SVGID_25_" d="M18.2,5.5c0.1,0.5,0.1,1.1,0.2,1.7c0.3,2.6,0.6,5.7,1.9,8.4h0c0,0,0,0,0,0c0,0,0,0,0,0c0,0,0,0,0,0 c0,0,0,0,0,0c0,0,0,0,0,0c0,0,0,0,0,0c0,0,0,0,0,0c0,0,0,0,0,0c0,0,0,0,0,0c0,0,0,0,0,0c0,0,0,0,0,0c0,0,0,0,0,0c0,0,0,0,0,0 c0,0,0,0,0,0c0,0,0,0,0,0c0,0,0,0,0,0c0,0,0,0,0,0c0,0,0,0,0,0c0,0,0,0,0,0c0,0,0,0,0,0c0,0,0,0,0,0c0.6,1.3,1.5,2.4,2.6,3.4 c-2.8-2.6-3.8-6.8-3.2-12.6c-0.1,0-0.1-0.1-0.2-0.1c-0.4-0.3-0.8-0.5-1.2-0.8C18.3,5.6,18.3,5.6,18.2,5.5L18.2,5.5z"/></defs><clipPath id="SVGID_26_"><use overflow="visible" xlink:href="#SVGID_25_"/></clipPath><linearGradient id="SVGID_27_" x1="-103.742" x2="-103.265" y1="96.926" y2="96.926" gradientTransform="matrix(19.9912 43.0674 43.0674 -19.9912 -2080.6113 6416.2671)" gradientUnits="userSpaceOnUse"><stop offset="0" style="stop-color:#004563"/><stop offset=".005" style="stop-color:#004563"/><stop offset=".13" style="stop-color:#004b6b"/><stop offset=".346" style="stop-color:#005b7f"/><stop offset=".51" style="stop-color:#006991"/><stop offset="1" style="stop-color:#839097"/></linearGradient><polygon fill="url(#SVGID_27_)" points="22.1 3.7 28.2 16.8 19 21 13 8" clip-path="url(#SVGID_26_)"/></g><g><defs><path id="SVGID_28_" d="M23,19.2C23,19.2,23,19.2,23,19.2C23,19.2,23,19.2,23,19.2C23,19.2,23,19.2,23,19.2 M23,19.2 c-0.1-0.1-0.1-0.1-0.2-0.2C22.8,19,22.9,19.1,23,19.2 M22.7,19c-1-0.9-1.8-2-2.4-3.2C20.9,17,21.7,18,22.7,19 M20.4,15.8 C20.4,15.8,20.4,15.8,20.4,15.8C20.4,15.8,20.4,15.8,20.4,15.8 M20.4,15.8C20.4,15.8,20.3,15.8,20.4,15.8 C20.3,15.8,20.4,15.8,20.4,15.8 M20.3,15.8C20.3,15.8,20.3,15.8,20.3,15.8C20.3,15.8,20.3,15.8,20.3,15.8 M20.3,15.7L20.3,15.7 C20.3,15.7,20.3,15.7,20.3,15.7 M20.3,15.7C20.3,15.7,20.3,15.7,20.3,15.7C20.3,15.7,20.3,15.7,20.3,15.7 M20.3,15.7 C20.3,15.7,20.3,15.7,20.3,15.7C20.3,15.7,20.3,15.7,20.3,15.7 M20.3,15.7C20.3,15.7,20.3,15.7,20.3,15.7 C20.3,15.7,20.3,15.7,20.3,15.7 M20.3,15.7C20.3,15.7,20.3,15.7,20.3,15.7C20.3,15.7,20.3,15.7,20.3,15.7 M20.3,15.7 C20.3,15.7,20.3,15.7,20.3,15.7C20.3,15.7,20.3,15.7,20.3,15.7 M20.3,15.7C20.3,15.7,20.3,15.7,20.3,15.7 C20.3,15.7,20.3,15.7,20.3,15.7 M20.3,15.7C20.3,15.7,20.3,15.7,20.3,15.7C20.3,15.7,20.3,15.7,20.3,15.7 M20.3,15.7 C20.3,15.6,20.3,15.6,20.3,15.7C20.3,15.6,20.3,15.6,20.3,15.7 M20.3,15.6C20.3,15.6,20.3,15.6,20.3,15.6 C20.3,15.6,20.3,15.6,20.3,15.6 M20.3,15.6L20.3,15.6L20.3,15.6z M18.2,5.5c0.1,0.5,0.1,1.1,0.2,1.7C18.3,6.6,18.2,6.1,18.2,5.5 z"/></defs><clipPath id="SVGID_29_"><use overflow="visible" xlink:href="#SVGID_28_"/></clipPath><linearGradient id="SVGID_30_" x1="-103.212" x2="-102.734" y1="92.418" y2="92.418" gradientTransform="matrix(-2.5812 -31.3964 -31.3964 2.5812 2656.0911 -3462.6416)" gradientUnits="userSpaceOnUse"><stop offset="0" style="stop-color:#8c0052"/><stop offset="1" style="stop-color:#570054"/></linearGradient><polygon fill="url(#SVGID_30_)" points="18.2 19.6 17.1 5.6 23 5.1 24.1 19.1" clip-path="url(#SVGID_29_)"/></g><g><path fill="#939598" d="M3.6,24.7C3.6,24.7,3.6,24.7,3.6,24.7c0,0.7-0.1,1.3-0.1,1.9C3.5,26,3.6,25.3,3.6,24.7"/></g><g><defs><path id="SVGID_31_" d="M3.6,24.7c0,0.7-0.1,1.3-0.1,1.9c2.1-1.6,5.1-3.5,7.2-6.2c1.1-1.4,1.9-2.9,2.2-4.8 C12.1,19.3,9,22.3,3.6,24.7"/></defs><clipPath id="SVGID_32_"><use overflow="visible" xlink:href="#SVGID_31_"/></clipPath><linearGradient id="SVGID_33_" x1="-102.16" x2="-101.683" y1="93.858" y2="93.858" gradientTransform="matrix(26.9605 -39.0815 -39.0815 -26.9605 6429.5869 -1439.5319)" gradientUnits="userSpaceOnUse"><stop offset="0" style="stop-color:#004563"/><stop offset=".005" style="stop-color:#004563"/><stop offset=".13" style="stop-color:#004b6b"/><stop offset=".346" style="stop-color:#005b7f"/><stop offset=".51" style="stop-color:#006991"/><stop offset="1" style="stop-color:#839097"/></linearGradient><polygon fill="url(#SVGID_33_)" points="-1.6 23 6.5 11.2 18.1 19.1 9.9 31" clip-path="url(#SVGID_32_)"/></g><g><defs><path id="SVGID_34_" d="M3.5,26.6c2.1-1.6,5.1-3.5,7.2-6.2C8.6,23.1,5.6,25,3.5,26.6"/></defs><clipPath id="SVGID_35_"><use overflow="visible" xlink:href="#SVGID_34_"/></clipPath><linearGradient id="SVGID_36_" x1="-100.523" x2="-100.046" y1="94.242" y2="94.242" gradientTransform="matrix(26.0879 -18.954 -18.954 -26.0879 4408.7383 581.8748)" gradientUnits="userSpaceOnUse"><stop offset="0" style="stop-color:#25451b"/><stop offset="1" style="stop-color:#4b7520"/></linearGradient><polygon fill="url(#SVGID_36_)" points=".5 22.5 8.2 16.9 13.7 24.4 6 30" clip-path="url(#SVGID_35_)"/></g><g><defs><path id="SVGID_37_" d="M2.5,31.4c-0.8,0-1.3-0.3-1.5-0.7C1.2,31.1,1.7,31.4,2.5,31.4c1.7,0,5-1.2,10.6-4.4c0,0,0,0,0,0 C7.2,30.3,4.1,31.4,2.5,31.4"/></defs><clipPath id="SVGID_38_"><use overflow="visible" xlink:href="#SVGID_37_"/></clipPath><linearGradient id="SVGID_39_" x1="-105.59" x2="-105.113" y1="93.98" y2="93.98" gradientTransform="matrix(-47.2925 -4.2207 -4.2207 47.2925 -4573.4575 -4859.5806)" gradientUnits="userSpaceOnUse"><stop offset="0" style="stop-color:#004563"/><stop offset=".005" style="stop-color:#004563"/><stop offset=".13" style="stop-color:#004b6b"/><stop offset=".346" style="stop-color:#005b7f"/><stop offset=".51" style="stop-color:#006991"/><stop offset="1" style="stop-color:#839097"/></linearGradient><polygon fill="url(#SVGID_39_)" points="13 32.5 .6 31.3 1.1 25.8 13.5 26.9" clip-path="url(#SVGID_38_)"/></g><g><defs><path id="SVGID_40_" d="M2.4,31c-0.8,0-1.4-0.3-1.6-1c0,0.3,0.1,0.5,0.2,0.7c0.2,0.4,0.6,0.7,1.5,0.7c1.6,0,4.7-1.1,10.6-4.5 c0-0.2,0-0.5,0-0.7C7.9,29.3,4.3,31,2.4,31"/></defs><clipPath id="SVGID_41_"><use overflow="visible" xlink:href="#SVGID_40_"/></clipPath><linearGradient id="SVGID_42_" x1="-100.523" x2="-100.046" y1="94.483" y2="94.483" gradientTransform="matrix(26.0879 -18.954 -18.954 -26.0879 4415.7681 591.5692)" gradientUnits="userSpaceOnUse"><stop offset="0" style="stop-color:#25451b"/><stop offset="1" style="stop-color:#4b7520"/></linearGradient><polygon fill="url(#SVGID_42_)" points="-1.6 28 8.9 20.4 15.5 29.6 5.1 37.2" clip-path="url(#SVGID_41_)"/></g><g><path fill="#939598" d="M24.6,20.3L24.6,20.3C24.6,20.3,24.6,20.3,24.6,20.3C24.6,20.3,24.6,20.3,24.6,20.3 M24.6,20.3 C24.6,20.3,24.6,20.3,24.6,20.3C24.6,20.3,24.6,20.3,24.6,20.3 M33.3,29.4C33.2,29.4,33.2,29.4,33.3,29.4 C33.2,29.4,33.2,29.4,33.3,29.4C33.2,29.4,33.2,29.4,33.3,29.4"/></g><g><defs><path id="SVGID_43_" d="M33.2,29.4C33.2,29.4,33.2,29.4,33.2,29.4C33.2,29.4,33.2,29.4,33.2,29.4c0.5-0.3,0.8-0.6,0.8-0.9 C33.9,28.9,33.6,29.2,33.2,29.4 M24.6,20.3C24.6,20.3,24.6,20.3,24.6,20.3C24.6,20.3,24.6,20.3,24.6,20.3 C24.6,20.3,24.6,20.3,24.6,20.3c1.9,1.1,3.4,2,4.6,2.9C27.9,22.3,26.4,21.4,24.6,20.3C24.6,20.3,24.6,20.3,24.6,20.3"/></defs><clipPath id="SVGID_44_"><use overflow="visible" xlink:href="#SVGID_43_"/></clipPath><linearGradient id="SVGID_45_" x1="-103.742" x2="-103.265" y1="96.876" y2="96.876" gradientTransform="matrix(19.9912 43.0674 43.0674 -19.9912 -2076.0911 6414.1602)" gradientUnits="userSpaceOnUse"><stop offset="0" style="stop-color:#004563"/><stop offset=".005" style="stop-color:#004563"/><stop offset=".13" style="stop-color:#004b6b"/><stop offset=".346" style="stop-color:#005b7f"/><stop offset=".51" style="stop-color:#006991"/><stop offset="1" style="stop-color:#839097"/></linearGradient><polygon fill="url(#SVGID_45_)" points="32.3 16.7 37.5 27.8 26.2 33 21.1 21.9" clip-path="url(#SVGID_44_)"/></g><g><defs><path id="SVGID_46_" d="M24,20.7c7.6,4.3,11.1,7.2,9.2,8.8c0.4-0.2,0.7-0.5,0.8-0.9c0.2-1.1-1.1-2.8-4.8-5.3 c-1.2-0.8-2.8-1.8-4.6-2.9c0,0,0,0,0,0c0,0,0,0,0,0c0,0,0,0,0,0C24.4,20.4,24.2,20.5,24,20.7"/></defs><clipPath id="SVGID_47_"><use overflow="visible" xlink:href="#SVGID_46_"/></clipPath><linearGradient id="SVGID_48_" x1="-105.424" x2="-104.947" y1="93.071" y2="93.071" gradientTransform="matrix(-29.505 -12.6459 -12.6459 29.505 -1899.3713 -4052.3528)" gradientUnits="userSpaceOnUse"><stop offset="0" style="stop-color:#8e4a02"/><stop offset="1" style="stop-color:#968d00"/></linearGradient><polygon fill="url(#SVGID_48_)" points="33.3 33.4 20.7 28 25.7 16.3 38.3 21.7" clip-path="url(#SVGID_47_)"/></g><g><path fill="#939598" d="M29.1,28.8c-0.5,0.3-1.1,0.6-1.7,0.9c0,0,0,0,0,0C28,29.3,28.5,29,29.1,28.8 C29.1,28.8,29.1,28.8,29.1,28.8"/></g><g><defs><path id="SVGID_49_" d="M14.9,26.1c0.8-0.3,1.7-0.4,2.6-0.4c2.9,0,6.2,1.3,9.8,3.9c0.6-0.3,1.1-0.6,1.7-0.9 c-0.1,0-0.1-0.1-0.2-0.1c-0.8-0.3-1.6-0.7-2.5-1.1c-2.4-1-5.1-2.1-8-2.1C17.2,25.5,16.1,25.7,14.9,26.1"/></defs><clipPath id="SVGID_50_"><use overflow="visible" xlink:href="#SVGID_49_"/></clipPath><linearGradient id="SVGID_51_" x1="-105.59" x2="-105.113" y1="94.012" y2="94.012" gradientTransform="matrix(-47.2925 -4.2207 -4.2207 47.2925 -4573.0518 -4864.001)" gradientUnits="userSpaceOnUse"><stop offset="0" style="stop-color:#004563"/><stop offset=".005" style="stop-color:#004563"/><stop offset=".13" style="stop-color:#004b6b"/><stop offset=".346" style="stop-color:#005b7f"/><stop offset=".51" style="stop-color:#006991"/><stop offset="1" style="stop-color:#839097"/></linearGradient><polygon fill="url(#SVGID_51_)" points="29 30.9 14.6 29.6 15 24.3 29.4 25.5" clip-path="url(#SVGID_50_)"/></g><g><defs><path id="SVGID_52_" d="M14.8,26.1C14.9,26.1,14.9,26.1,14.8,26.1c1.3-0.4,2.4-0.6,3.6-0.6c2.8,0,5.6,1,8,2.1 c0.9,0.4,1.7,0.8,2.5,1.1c-2.9-1.2-6.6-3.2-10.5-3.2C17.2,25.5,16,25.7,14.8,26.1"/></defs><clipPath id="SVGID_53_"><use overflow="visible" xlink:href="#SVGID_52_"/></clipPath><linearGradient id="SVGID_54_" x1="-105.424" x2="-104.947" y1="92.859" y2="92.859" gradientTransform="matrix(-29.505 -12.6459 -12.6459 29.505 -1904.0266 -4041.4341)" gradientUnits="userSpaceOnUse"><stop offset="0" style="stop-color:#8e4a02"/><stop offset="1" style="stop-color:#968d00"/></linearGradient><polygon fill="url(#SVGID_54_)" points="26.7 33.8 13.7 28.2 17 20.4 30 26" clip-path="url(#SVGID_53_)"/></g></g><path fill="#77787B" d="M106.7,29.4V12.9c0-0.2,0-0.3-0.1-0.5c-0.1-0.1-0.2-0.3-0.4-0.3c-0.1-0.1-0.3-0.1-0.5-0.1h-2 c-0.2,0-0.4,0.1-0.5,0.2c-0.2,0.1-0.3,0.2-0.4,0.4l-3.7,7.3C99.1,20,99,20,99,20.1c0,0.1-0.1,0.1-0.1,0.1c0,0-0.1,0-0.1-0.1 c0-0.1-0.1-0.1-0.1-0.2l-3.7-7.3c-0.1-0.2-0.2-0.3-0.4-0.4C94.4,12,94.2,12,94,11.9h-2c-0.2,0-0.3,0-0.5,0.1 c-0.1,0.1-0.3,0.2-0.4,0.3c-0.1,0.1-0.1,0.3-0.1,0.5v16.5c0,0.1,0,0.2,0.1,0.3c0.1,0.1,0.2,0.1,0.3,0.1h2.5c0.1,0,0.2-0.1,0.3-0.2 c0.1-0.1,0.1-0.2,0.1-0.3V18.1c0-0.1,0-0.1,0-0.2c0,0,0-0.1,0.1-0.1c0,0,0,0,0.1,0c0,0,0,0.1,0.1,0.1l2.4,4.6 c0.1,0.1,0.2,0.2,0.3,0.3c0.1,0.1,0.3,0.1,0.5,0.1h2.5c0.2,0,0.3,0,0.5-0.1c0.1-0.1,0.2-0.2,0.3-0.3l2.3-4.6c0,0,0-0.1,0.1-0.1 c0,0,0,0,0.1,0c0,0,0,0,0.1,0.1c0,0,0,0.1,0,0.2v11.1c0,0.1,0,0.2,0.1,0.3c0.1,0.1,0.2,0.1,0.3,0.2h2.5c0.1,0,0.2,0,0.3-0.1 C106.7,29.6,106.7,29.5,106.7,29.4 M52.9,14.3c0,0.1-0.1,0.2-0.1,0.3c-0.1,0.1-0.2,0.1-0.3,0.1h-4.3v14.5c0,0.1-0.1,0.2-0.1,0.3 c-0.1,0.1-0.2,0.1-0.3,0.1h-2.4c-0.1,0-0.3-0.1-0.3-0.1c-0.1-0.1-0.1-0.2-0.1-0.3V14.7h-4.3c-0.1,0-0.3,0-0.3-0.1 c-0.1-0.1-0.1-0.2-0.1-0.3v-1.9c0-0.1,0.1-0.2,0.1-0.3c0.1-0.1,0.2-0.1,0.3-0.1h12c0.1,0,0.3,0,0.3,0.1c0.1,0.1,0.1,0.2,0.1,0.3 V14.3z M63.7,24.1v-7.4c0-0.1,0-0.3-0.1-0.4c-0.1-0.1-0.2-0.1-0.3-0.2H61c-0.1,0-0.2,0.1-0.3,0.2c-0.1,0.1-0.1,0.2-0.1,0.4v7.4 c0,0.6-0.1,1.1-0.2,1.5c-0.1,0.4-0.3,0.7-0.5,0.9c-0.2,0.2-0.5,0.4-0.7,0.5c-0.3,0.1-0.6,0.1-1,0.1H58c-0.4,0-0.7,0-1-0.1 c-0.3-0.1-0.5-0.2-0.7-0.5c-0.2-0.2-0.4-0.5-0.5-0.9c-0.1-0.4-0.2-0.9-0.2-1.5v-7.4c0-0.1,0-0.3-0.1-0.4c-0.1-0.1-0.2-0.1-0.3-0.2 h-2.3c-0.1,0-0.2,0.1-0.3,0.2c-0.1,0.1-0.1,0.2-0.1,0.4v7.4c0,0.9,0.1,1.6,0.3,2.2c0.2,0.6,0.5,1.2,0.8,1.6c0.3,0.4,0.7,0.8,1.1,1 c0.4,0.3,0.8,0.5,1.2,0.6c0.4,0.1,0.8,0.2,1.2,0.3c0.4,0,0.7,0.1,0.9,0.1h0.1c0.2,0,0.6,0,0.9-0.1c0.4,0,0.8-0.1,1.2-0.3 c0.4-0.1,0.8-0.3,1.2-0.6c0.4-0.3,0.8-0.6,1.1-1c0.3-0.4,0.6-1,0.8-1.6C63.6,25.8,63.7,25,63.7,24.1 M76.7,23.9v-1.8 c0-1.3-0.2-2.3-0.6-3.2c-0.4-0.9-1.1-1.6-1.9-2.1c-0.9-0.5-2-0.7-3.3-0.7c-0.3,0-0.6,0-1.1,0c-0.4,0-0.8,0.1-1.3,0.1V12 c0-0.1-0.1-0.2-0.1-0.3c-0.1-0.1-0.2-0.1-0.3-0.1h-2.3c-0.1,0-0.3,0.1-0.3,0.1c-0.1,0.1-0.1,0.2-0.1,0.3v16.7c0,0.1,0,0.2,0,0.3 c0,0.1,0.1,0.1,0.2,0.2c0.1,0.1,0.2,0.1,0.4,0.2c0.5,0.1,1,0.2,1.6,0.3c0.6,0.1,1.1,0.2,1.7,0.2c0.6,0,1.1,0.1,1.6,0.1 c1.3,0,2.4-0.2,3.3-0.7c0.9-0.5,1.5-1.2,1.9-2.1C76.5,26.2,76.7,25.2,76.7,23.9 M73.4,23.9c0,0.7-0.1,1.3-0.2,1.8 c-0.1,0.5-0.4,0.9-0.8,1.2c-0.4,0.3-0.9,0.4-1.6,0.5c-0.3,0-0.6,0-0.9,0c-0.3,0-0.6,0-0.8-0.1c-0.3,0-0.5-0.1-0.6-0.1v-8.4 c0.2,0,0.5-0.1,0.8-0.1c0.3,0,0.6,0,0.8-0.1c0.3,0,0.5,0,0.7,0c0.7,0,1.2,0.2,1.6,0.5c0.4,0.3,0.6,0.7,0.8,1.2 c0.2,0.5,0.2,1.1,0.2,1.8V23.9z M89.1,23.5v-1.3c0-0.9-0.1-1.7-0.4-2.5c-0.3-0.7-0.6-1.4-1.1-1.9c-0.5-0.5-1.1-1-1.8-1.3 c-0.7-0.3-1.6-0.4-2.5-0.4c-1.3,0-2.3,0.3-3.2,0.7c-0.9,0.5-1.5,1.2-2,2.1c-0.5,0.9-0.7,2-0.7,3.2v1.8c0,0.9,0.1,1.8,0.4,2.4 c0.2,0.7,0.6,1.3,1,1.7c0.4,0.5,0.9,0.8,1.4,1.1c0.5,0.3,1,0.5,1.6,0.6c0.5,0.1,1.1,0.2,1.6,0.2c0.5,0,1,0,1.4,0 c0.4,0,0.8,0,1.2-0.1c0.4,0,0.7-0.1,1-0.1c0.3-0.1,0.7-0.1,1.1-0.2c0.2,0,0.4-0.1,0.4-0.2c0.1-0.1,0.1-0.2,0.1-0.4v-1.6 c0-0.1,0-0.2-0.1-0.3C88.3,27,88.2,27,88.1,27H88c-0.3,0-0.8,0.1-1.2,0.1c-0.5,0-1,0.1-1.5,0.1c-0.6,0-1.1,0-1.7,0 c-0.6,0-1.1-0.1-1.4-0.3c-0.4-0.2-0.7-0.4-0.9-0.7c-0.2-0.3-0.4-0.6-0.5-1c-0.1-0.4-0.1-0.7-0.1-1.1v-0.1h8c0.2,0,0.3-0.1,0.4-0.2 C89,23.8,89.1,23.7,89.1,23.5 M85.8,21.8h-5.2v-0.1c0-0.6,0.1-1.2,0.3-1.6s0.5-0.8,0.9-1c0.4-0.2,0.8-0.3,1.4-0.3 c0.5,0,1,0.1,1.3,0.3c0.4,0.2,0.7,0.6,0.9,1C85.7,20.6,85.8,21.1,85.8,21.8L85.8,21.8z M119.4,24V22c0-0.9-0.1-1.7-0.4-2.4 c-0.2-0.7-0.6-1.4-1.1-1.9c-0.5-0.5-1.1-1-1.8-1.2c-0.7-0.3-1.6-0.4-2.5-0.5c-1,0-1.8,0.2-2.5,0.5c-0.7,0.3-1.3,0.7-1.8,1.2 c-0.5,0.5-0.9,1.2-1.1,1.9c-0.2,0.7-0.4,1.5-0.4,2.4V24c0,0.9,0.1,1.7,0.4,2.4c0.2,0.7,0.6,1.4,1.1,1.9c0.5,0.5,1.1,1,1.8,1.2 c0.7,0.3,1.6,0.4,2.5,0.5c1,0,1.8-0.2,2.5-0.5c0.7-0.3,1.3-0.7,1.8-1.2c0.5-0.5,0.9-1.2,1.1-1.9C119.2,25.6,119.4,24.8,119.4,24 M116.1,24c0,0.7-0.1,1.2-0.3,1.7c-0.2,0.5-0.5,0.9-0.9,1.1c-0.4,0.3-0.9,0.4-1.4,0.4c-0.6,0-1.1-0.1-1.4-0.4 c-0.4-0.3-0.7-0.6-0.9-1.1c-0.2-0.5-0.3-1.1-0.3-1.7V22c0-0.7,0.1-1.2,0.3-1.7c0.2-0.5,0.5-0.9,0.9-1.1c0.4-0.3,0.9-0.4,1.4-0.4 c0.6,0,1.1,0.1,1.4,0.4c0.4,0.3,0.7,0.6,0.9,1.1c0.2,0.5,0.3,1.1,0.3,1.7V24z M131.5,29.7V17.3c0-0.1,0-0.2,0-0.3 c0-0.1-0.1-0.1-0.2-0.2c-0.1-0.1-0.2-0.1-0.4-0.2c-0.5-0.1-1-0.2-1.6-0.3c-0.6-0.1-1.1-0.2-1.7-0.2c-0.6-0.1-1.1-0.1-1.6-0.1 c-1.3,0-2.4,0.2-3.3,0.7c-0.9,0.5-1.5,1.2-1.9,2.1c-0.4,0.9-0.6,2-0.6,3.2v1.8c0,1.3,0.2,2.3,0.6,3.2c0.4,0.9,1.1,1.6,1.9,2.1 c0.9,0.5,2,0.7,3.3,0.7c0.2,0,0.3,0,0.5,0c0.2,0,0.4,0,0.7-0.1c0.2,0,0.4-0.1,0.6-0.1c0.2,0,0.4-0.1,0.5-0.1v0.2c0,0.4,0,0.8-0.1,1 c-0.1,0.3-0.2,0.5-0.3,0.7c-0.2,0.2-0.4,0.3-0.7,0.3c-0.3,0.1-0.7,0.1-1.2,0.1c-0.3,0-0.6,0-1,0c-0.4,0-0.8,0-1.3-0.1 c-0.4,0-0.9-0.1-1.3-0.1c-0.4,0-0.7-0.1-1-0.1h0h0c-0.1,0-0.2,0-0.3,0.1c-0.1,0.1-0.1,0.2-0.1,0.3v1.3c0,0.2,0,0.3,0.1,0.4 c0.1,0.1,0.2,0.2,0.4,0.2c0.5,0.1,1.1,0.3,1.9,0.4c0.8,0.1,1.7,0.2,2.7,0.2c1.2,0,2.3-0.2,3.1-0.5c0.8-0.3,1.4-0.9,1.8-1.6 C131.3,31.8,131.5,30.8,131.5,29.7 M128.3,27.2c-0.2,0-0.5,0.1-0.8,0.1c-0.3,0-0.6,0.1-0.8,0.1c-0.3,0-0.5,0-0.7,0 c-0.7,0-1.2-0.2-1.6-0.5c-0.4-0.3-0.6-0.7-0.8-1.2c-0.1-0.5-0.2-1.1-0.2-1.8v-1.8c0-0.7,0.1-1.3,0.2-1.8c0.1-0.5,0.4-0.9,0.8-1.2 c0.4-0.3,0.9-0.4,1.6-0.5c0.3,0,0.6,0,0.9,0c0.3,0,0.6,0,0.8,0.1c0.3,0,0.5,0.1,0.6,0.1V27.2z M144.3,24.1v-7.4 c0-0.1,0-0.3-0.1-0.4c-0.1-0.1-0.2-0.1-0.3-0.2h-2.3c-0.1,0-0.2,0.1-0.3,0.2c-0.1,0.1-0.1,0.2-0.1,0.4v7.4c0,0.6-0.1,1.1-0.2,1.5 c-0.1,0.4-0.3,0.7-0.5,0.9c-0.2,0.2-0.5,0.4-0.7,0.5c-0.3,0.1-0.6,0.1-1,0.1h-0.1c-0.4,0-0.7,0-1-0.1c-0.3-0.1-0.5-0.2-0.7-0.5 c-0.2-0.2-0.4-0.5-0.5-0.9c-0.1-0.4-0.2-0.9-0.2-1.5v-7.4c0-0.1,0-0.3-0.1-0.4c-0.1-0.1-0.2-0.1-0.3-0.2h-2.3 c-0.1,0-0.2,0.1-0.3,0.2c-0.1,0.1-0.1,0.2-0.1,0.4v7.4c0,0.9,0.1,1.6,0.3,2.2c0.2,0.6,0.5,1.2,0.8,1.6c0.3,0.4,0.7,0.8,1.1,1 c0.4,0.3,0.8,0.5,1.2,0.6c0.4,0.1,0.8,0.2,1.2,0.3c0.4,0,0.7,0.1,0.9,0.1h0.1c0.2,0,0.6,0,0.9-0.1c0.4,0,0.8-0.1,1.2-0.3 c0.4-0.1,0.8-0.3,1.2-0.6c0.4-0.3,0.8-0.6,1.1-1c0.3-0.4,0.6-1,0.8-1.6C144.2,25.8,144.3,25,144.3,24.1 M149.1,29.2V12 c0-0.1,0-0.2-0.1-0.3c-0.1-0.1-0.2-0.1-0.3-0.1h-2.3c-0.1,0-0.3,0.1-0.3,0.1c-0.1,0.1-0.1,0.2-0.1,0.3v17.3c0,0.1,0.1,0.3,0.1,0.4 c0.1,0.1,0.2,0.1,0.3,0.2h2.3c0.1,0,0.2-0.1,0.3-0.2C149.1,29.5,149.1,29.4,149.1,29.2"/></g></svg>